<mxfile host="app.diagrams.net" modified="2023-09-14T08:22:05.255Z" agent="Mozilla/5.0 (Windows NT 10.0; Win64; x64) AppleWebKit/537.36 (KHTML, like Gecko) Chrome/114.0.0.0 YaBrowser/23.7.5.704 Yowser/2.5 Safari/537.36" etag="rVpwkVopMXOaiMIFYXjz" version="21.7.4" type="github">
  <diagram name="Страница — 1" id="4jGealdHZUKZ3TgoFrle">
    <mxGraphModel dx="1386" dy="759" grid="1" gridSize="10" guides="1" tooltips="1" connect="1" arrows="1" fold="1" page="1" pageScale="1" pageWidth="827" pageHeight="1169" math="0" shadow="0">
      <root>
        <mxCell id="0" />
        <mxCell id="1" parent="0" />
        <mxCell id="MALh_kVeiFTgHuODArNd-29" style="edgeStyle=orthogonalEdgeStyle;rounded=0;orthogonalLoop=1;jettySize=auto;html=1;exitX=0.5;exitY=1;exitDx=0;exitDy=0;entryX=0.5;entryY=0;entryDx=0;entryDy=0;" edge="1" parent="1" source="MALh_kVeiFTgHuODArNd-1" target="MALh_kVeiFTgHuODArNd-2">
          <mxGeometry relative="1" as="geometry" />
        </mxCell>
        <mxCell id="MALh_kVeiFTgHuODArNd-1" value="Start" style="ellipse;whiteSpace=wrap;html=1;" vertex="1" parent="1">
          <mxGeometry x="182" y="20" width="120" height="60" as="geometry" />
        </mxCell>
        <mxCell id="MALh_kVeiFTgHuODArNd-17" style="edgeStyle=orthogonalEdgeStyle;rounded=0;orthogonalLoop=1;jettySize=auto;html=1;exitX=0.5;exitY=1;exitDx=0;exitDy=0;entryX=0.5;entryY=0;entryDx=0;entryDy=0;" edge="1" parent="1" source="MALh_kVeiFTgHuODArNd-2" target="MALh_kVeiFTgHuODArNd-16">
          <mxGeometry relative="1" as="geometry" />
        </mxCell>
        <mxCell id="MALh_kVeiFTgHuODArNd-2" value="massive = []&lt;br&gt;index = 0&lt;br&gt;size = massive.lenght&lt;br&gt;Min&amp;nbsp;&amp;nbsp;&lt;br&gt;Max&amp;nbsp;&amp;nbsp;&lt;br&gt;indexMax&lt;br&gt;indexMin&lt;br&gt;indexEnd&lt;br&gt;Result" style="shape=parallelogram;perimeter=parallelogramPerimeter;whiteSpace=wrap;html=1;fixedSize=1;" vertex="1" parent="1">
          <mxGeometry x="157" y="100" width="170" height="140" as="geometry" />
        </mxCell>
        <mxCell id="MALh_kVeiFTgHuODArNd-6" style="edgeStyle=orthogonalEdgeStyle;rounded=0;orthogonalLoop=1;jettySize=auto;html=1;exitX=0.5;exitY=1;exitDx=0;exitDy=0;entryX=0.5;entryY=0;entryDx=0;entryDy=0;" edge="1" parent="1" source="MALh_kVeiFTgHuODArNd-3" target="MALh_kVeiFTgHuODArNd-4">
          <mxGeometry relative="1" as="geometry" />
        </mxCell>
        <mxCell id="MALh_kVeiFTgHuODArNd-7" value="Yes" style="edgeLabel;html=1;align=center;verticalAlign=middle;resizable=0;points=[];" vertex="1" connectable="0" parent="MALh_kVeiFTgHuODArNd-6">
          <mxGeometry x="-0.15" y="1" relative="1" as="geometry">
            <mxPoint as="offset" />
          </mxGeometry>
        </mxCell>
        <mxCell id="MALh_kVeiFTgHuODArNd-10" style="edgeStyle=orthogonalEdgeStyle;rounded=0;orthogonalLoop=1;jettySize=auto;html=1;exitX=1;exitY=0.5;exitDx=0;exitDy=0;entryX=0;entryY=0.5;entryDx=0;entryDy=0;" edge="1" parent="1" source="MALh_kVeiFTgHuODArNd-3" target="MALh_kVeiFTgHuODArNd-36">
          <mxGeometry relative="1" as="geometry">
            <mxPoint x="324" y="387.03999999999996" as="targetPoint" />
          </mxGeometry>
        </mxCell>
        <mxCell id="MALh_kVeiFTgHuODArNd-11" value="No" style="edgeLabel;html=1;align=center;verticalAlign=middle;resizable=0;points=[];" vertex="1" connectable="0" parent="MALh_kVeiFTgHuODArNd-10">
          <mxGeometry x="0.0515" relative="1" as="geometry">
            <mxPoint as="offset" />
          </mxGeometry>
        </mxCell>
        <mxCell id="MALh_kVeiFTgHuODArNd-3" value="index &amp;lt; size" style="rhombus;whiteSpace=wrap;html=1;" vertex="1" parent="1">
          <mxGeometry x="202" y="346" width="80" height="80" as="geometry" />
        </mxCell>
        <mxCell id="MALh_kVeiFTgHuODArNd-14" style="edgeStyle=orthogonalEdgeStyle;rounded=0;orthogonalLoop=1;jettySize=auto;html=1;exitX=0.5;exitY=1;exitDx=0;exitDy=0;entryX=0.5;entryY=0;entryDx=0;entryDy=0;" edge="1" parent="1" source="MALh_kVeiFTgHuODArNd-4" target="MALh_kVeiFTgHuODArNd-8">
          <mxGeometry relative="1" as="geometry" />
        </mxCell>
        <mxCell id="MALh_kVeiFTgHuODArNd-15" value="Yes" style="edgeLabel;html=1;align=center;verticalAlign=middle;resizable=0;points=[];" vertex="1" connectable="0" parent="MALh_kVeiFTgHuODArNd-14">
          <mxGeometry x="-0.2889" y="3" relative="1" as="geometry">
            <mxPoint as="offset" />
          </mxGeometry>
        </mxCell>
        <mxCell id="MALh_kVeiFTgHuODArNd-20" style="edgeStyle=orthogonalEdgeStyle;rounded=0;orthogonalLoop=1;jettySize=auto;html=1;exitX=1;exitY=0.5;exitDx=0;exitDy=0;entryX=0;entryY=0.5;entryDx=0;entryDy=0;" edge="1" parent="1" source="MALh_kVeiFTgHuODArNd-4" target="MALh_kVeiFTgHuODArNd-19">
          <mxGeometry relative="1" as="geometry" />
        </mxCell>
        <mxCell id="MALh_kVeiFTgHuODArNd-21" value="No" style="edgeLabel;html=1;align=center;verticalAlign=middle;resizable=0;points=[];" vertex="1" connectable="0" parent="MALh_kVeiFTgHuODArNd-20">
          <mxGeometry x="-0.3455" y="-1" relative="1" as="geometry">
            <mxPoint as="offset" />
          </mxGeometry>
        </mxCell>
        <mxCell id="MALh_kVeiFTgHuODArNd-4" value="massive[index] &amp;lt; Min" style="rhombus;whiteSpace=wrap;html=1;" vertex="1" parent="1">
          <mxGeometry x="157" y="466" width="170" height="140" as="geometry" />
        </mxCell>
        <mxCell id="MALh_kVeiFTgHuODArNd-32" style="edgeStyle=orthogonalEdgeStyle;rounded=0;orthogonalLoop=1;jettySize=auto;html=1;exitX=0.5;exitY=1;exitDx=0;exitDy=0;entryX=0.444;entryY=1.003;entryDx=0;entryDy=0;entryPerimeter=0;" edge="1" parent="1" source="MALh_kVeiFTgHuODArNd-8" target="MALh_kVeiFTgHuODArNd-25">
          <mxGeometry relative="1" as="geometry" />
        </mxCell>
        <mxCell id="MALh_kVeiFTgHuODArNd-8" value="indexMin = index&lt;br&gt;Min = massive[index]" style="rounded=0;whiteSpace=wrap;html=1;" vertex="1" parent="1">
          <mxGeometry x="182" y="651" width="120" height="60" as="geometry" />
        </mxCell>
        <mxCell id="MALh_kVeiFTgHuODArNd-18" style="edgeStyle=orthogonalEdgeStyle;rounded=0;orthogonalLoop=1;jettySize=auto;html=1;exitX=0.5;exitY=1;exitDx=0;exitDy=0;entryX=0.5;entryY=0;entryDx=0;entryDy=0;" edge="1" parent="1" source="MALh_kVeiFTgHuODArNd-16" target="MALh_kVeiFTgHuODArNd-3">
          <mxGeometry relative="1" as="geometry" />
        </mxCell>
        <mxCell id="MALh_kVeiFTgHuODArNd-16" value="Min = massive[index]&lt;br&gt;Max = massive[index]&lt;br&gt;indexMax = index&lt;br style=&quot;border-color: var(--border-color);&quot;&gt;indexMin = index" style="rounded=0;whiteSpace=wrap;html=1;" vertex="1" parent="1">
          <mxGeometry x="182" y="260" width="120" height="60" as="geometry" />
        </mxCell>
        <mxCell id="MALh_kVeiFTgHuODArNd-23" style="edgeStyle=orthogonalEdgeStyle;rounded=0;orthogonalLoop=1;jettySize=auto;html=1;exitX=0.5;exitY=1;exitDx=0;exitDy=0;entryX=0.5;entryY=0;entryDx=0;entryDy=0;" edge="1" parent="1" source="MALh_kVeiFTgHuODArNd-19" target="MALh_kVeiFTgHuODArNd-22">
          <mxGeometry relative="1" as="geometry" />
        </mxCell>
        <mxCell id="MALh_kVeiFTgHuODArNd-24" value="Yes" style="edgeLabel;html=1;align=center;verticalAlign=middle;resizable=0;points=[];" vertex="1" connectable="0" parent="MALh_kVeiFTgHuODArNd-23">
          <mxGeometry x="-0.0233" relative="1" as="geometry">
            <mxPoint as="offset" />
          </mxGeometry>
        </mxCell>
        <mxCell id="MALh_kVeiFTgHuODArNd-34" style="edgeStyle=orthogonalEdgeStyle;rounded=0;orthogonalLoop=1;jettySize=auto;html=1;exitX=1;exitY=0.5;exitDx=0;exitDy=0;" edge="1" parent="1" source="MALh_kVeiFTgHuODArNd-19">
          <mxGeometry relative="1" as="geometry">
            <mxPoint x="84" y="421.6666666666667" as="targetPoint" />
            <Array as="points">
              <mxPoint x="564" y="536" />
              <mxPoint x="564" y="730" />
              <mxPoint x="85" y="730" />
              <mxPoint x="85" y="422" />
            </Array>
          </mxGeometry>
        </mxCell>
        <mxCell id="MALh_kVeiFTgHuODArNd-35" value="No" style="edgeLabel;html=1;align=center;verticalAlign=middle;resizable=0;points=[];" vertex="1" connectable="0" parent="MALh_kVeiFTgHuODArNd-34">
          <mxGeometry x="-0.8082" y="-3" relative="1" as="geometry">
            <mxPoint as="offset" />
          </mxGeometry>
        </mxCell>
        <mxCell id="MALh_kVeiFTgHuODArNd-19" value="massive[index] &amp;lt; Max" style="rhombus;whiteSpace=wrap;html=1;" vertex="1" parent="1">
          <mxGeometry x="382" y="464" width="160" height="144" as="geometry" />
        </mxCell>
        <mxCell id="MALh_kVeiFTgHuODArNd-33" style="edgeStyle=orthogonalEdgeStyle;rounded=0;orthogonalLoop=1;jettySize=auto;html=1;exitX=0.5;exitY=1;exitDx=0;exitDy=0;" edge="1" parent="1" source="MALh_kVeiFTgHuODArNd-22">
          <mxGeometry relative="1" as="geometry">
            <mxPoint x="84" y="420" as="targetPoint" />
          </mxGeometry>
        </mxCell>
        <mxCell id="MALh_kVeiFTgHuODArNd-22" value="indexMax = index&lt;br style=&quot;border-color: var(--border-color);&quot;&gt;Max = massive[index]" style="rounded=0;whiteSpace=wrap;html=1;" vertex="1" parent="1">
          <mxGeometry x="402" y="651" width="120" height="60" as="geometry" />
        </mxCell>
        <mxCell id="MALh_kVeiFTgHuODArNd-28" style="edgeStyle=orthogonalEdgeStyle;rounded=0;orthogonalLoop=1;jettySize=auto;html=1;exitX=1;exitY=0.5;exitDx=0;exitDy=0;entryX=0;entryY=0.5;entryDx=0;entryDy=0;" edge="1" parent="1" source="MALh_kVeiFTgHuODArNd-25" target="MALh_kVeiFTgHuODArNd-3">
          <mxGeometry relative="1" as="geometry" />
        </mxCell>
        <mxCell id="MALh_kVeiFTgHuODArNd-25" value="index++" style="rounded=0;whiteSpace=wrap;html=1;" vertex="1" parent="1">
          <mxGeometry x="29" y="356" width="120" height="60" as="geometry" />
        </mxCell>
        <mxCell id="MALh_kVeiFTgHuODArNd-41" style="edgeStyle=orthogonalEdgeStyle;rounded=0;orthogonalLoop=1;jettySize=auto;html=1;exitX=1;exitY=0.5;exitDx=0;exitDy=0;entryX=0;entryY=0.5;entryDx=0;entryDy=0;" edge="1" parent="1" source="MALh_kVeiFTgHuODArNd-36" target="MALh_kVeiFTgHuODArNd-40">
          <mxGeometry relative="1" as="geometry" />
        </mxCell>
        <mxCell id="MALh_kVeiFTgHuODArNd-42" value="Yes" style="edgeLabel;html=1;align=center;verticalAlign=middle;resizable=0;points=[];" vertex="1" connectable="0" parent="MALh_kVeiFTgHuODArNd-41">
          <mxGeometry x="-0.122" y="-2" relative="1" as="geometry">
            <mxPoint as="offset" />
          </mxGeometry>
        </mxCell>
        <mxCell id="MALh_kVeiFTgHuODArNd-44" style="edgeStyle=orthogonalEdgeStyle;rounded=0;orthogonalLoop=1;jettySize=auto;html=1;exitX=0.5;exitY=0;exitDx=0;exitDy=0;entryX=0;entryY=0.5;entryDx=0;entryDy=0;" edge="1" parent="1" source="MALh_kVeiFTgHuODArNd-36" target="MALh_kVeiFTgHuODArNd-43">
          <mxGeometry relative="1" as="geometry" />
        </mxCell>
        <mxCell id="MALh_kVeiFTgHuODArNd-45" value="No" style="edgeLabel;html=1;align=center;verticalAlign=middle;resizable=0;points=[];" vertex="1" connectable="0" parent="MALh_kVeiFTgHuODArNd-44">
          <mxGeometry x="-0.1538" y="1" relative="1" as="geometry">
            <mxPoint as="offset" />
          </mxGeometry>
        </mxCell>
        <mxCell id="MALh_kVeiFTgHuODArNd-36" value="indexMin &amp;lt; indexMax" style="rhombus;whiteSpace=wrap;html=1;" vertex="1" parent="1">
          <mxGeometry x="330" y="330" width="120" height="110" as="geometry" />
        </mxCell>
        <mxCell id="MALh_kVeiFTgHuODArNd-48" style="edgeStyle=orthogonalEdgeStyle;rounded=0;orthogonalLoop=1;jettySize=auto;html=1;exitX=1;exitY=0.5;exitDx=0;exitDy=0;entryX=0.5;entryY=0;entryDx=0;entryDy=0;" edge="1" parent="1" source="MALh_kVeiFTgHuODArNd-40" target="MALh_kVeiFTgHuODArNd-46">
          <mxGeometry relative="1" as="geometry" />
        </mxCell>
        <mxCell id="MALh_kVeiFTgHuODArNd-40" value="index = indexMin + 1&lt;br&gt;indexEnd = indexMax" style="rounded=0;whiteSpace=wrap;html=1;" vertex="1" parent="1">
          <mxGeometry x="490" y="356" width="120" height="60" as="geometry" />
        </mxCell>
        <mxCell id="MALh_kVeiFTgHuODArNd-47" style="edgeStyle=orthogonalEdgeStyle;rounded=0;orthogonalLoop=1;jettySize=auto;html=1;exitX=1;exitY=0.5;exitDx=0;exitDy=0;entryX=0.5;entryY=0;entryDx=0;entryDy=0;" edge="1" parent="1" source="MALh_kVeiFTgHuODArNd-43" target="MALh_kVeiFTgHuODArNd-46">
          <mxGeometry relative="1" as="geometry" />
        </mxCell>
        <mxCell id="MALh_kVeiFTgHuODArNd-43" value="index = indexMax + 1&lt;br&gt;indexEnd = indexMin" style="rounded=0;whiteSpace=wrap;html=1;" vertex="1" parent="1">
          <mxGeometry x="490" y="270" width="120" height="60" as="geometry" />
        </mxCell>
        <mxCell id="MALh_kVeiFTgHuODArNd-50" style="edgeStyle=orthogonalEdgeStyle;rounded=0;orthogonalLoop=1;jettySize=auto;html=1;exitX=0.5;exitY=1;exitDx=0;exitDy=0;entryX=0.5;entryY=0;entryDx=0;entryDy=0;" edge="1" parent="1" source="MALh_kVeiFTgHuODArNd-46" target="MALh_kVeiFTgHuODArNd-49">
          <mxGeometry relative="1" as="geometry" />
        </mxCell>
        <mxCell id="MALh_kVeiFTgHuODArNd-51" value="Yes" style="edgeLabel;html=1;align=center;verticalAlign=middle;resizable=0;points=[];" vertex="1" connectable="0" parent="MALh_kVeiFTgHuODArNd-50">
          <mxGeometry x="-0.2" y="-2" relative="1" as="geometry">
            <mxPoint as="offset" />
          </mxGeometry>
        </mxCell>
        <mxCell id="MALh_kVeiFTgHuODArNd-55" style="edgeStyle=orthogonalEdgeStyle;rounded=0;orthogonalLoop=1;jettySize=auto;html=1;exitX=1;exitY=0.5;exitDx=0;exitDy=0;entryX=0.667;entryY=0.013;entryDx=0;entryDy=0;entryPerimeter=0;" edge="1" parent="1" source="MALh_kVeiFTgHuODArNd-46" target="MALh_kVeiFTgHuODArNd-54">
          <mxGeometry relative="1" as="geometry" />
        </mxCell>
        <mxCell id="MALh_kVeiFTgHuODArNd-56" value="No" style="edgeLabel;html=1;align=center;verticalAlign=middle;resizable=0;points=[];" vertex="1" connectable="0" parent="MALh_kVeiFTgHuODArNd-55">
          <mxGeometry x="-0.5129" y="1" relative="1" as="geometry">
            <mxPoint as="offset" />
          </mxGeometry>
        </mxCell>
        <mxCell id="MALh_kVeiFTgHuODArNd-46" value="index &amp;lt; indexEnd" style="rhombus;whiteSpace=wrap;html=1;" vertex="1" parent="1">
          <mxGeometry x="643" y="420" width="110" height="100" as="geometry" />
        </mxCell>
        <mxCell id="MALh_kVeiFTgHuODArNd-53" style="edgeStyle=orthogonalEdgeStyle;rounded=0;orthogonalLoop=1;jettySize=auto;html=1;exitX=0.5;exitY=1;exitDx=0;exitDy=0;entryX=0;entryY=0.5;entryDx=0;entryDy=0;" edge="1" parent="1" source="MALh_kVeiFTgHuODArNd-49" target="MALh_kVeiFTgHuODArNd-46">
          <mxGeometry relative="1" as="geometry" />
        </mxCell>
        <mxCell id="MALh_kVeiFTgHuODArNd-49" value="result =result +&amp;nbsp; massive[index]&lt;br&gt;&lt;br&gt;index++" style="rounded=0;whiteSpace=wrap;html=1;" vertex="1" parent="1">
          <mxGeometry x="638" y="570" width="122" height="70" as="geometry" />
        </mxCell>
        <mxCell id="MALh_kVeiFTgHuODArNd-58" value="" style="edgeStyle=orthogonalEdgeStyle;rounded=0;orthogonalLoop=1;jettySize=auto;html=1;" edge="1" parent="1" source="MALh_kVeiFTgHuODArNd-54" target="MALh_kVeiFTgHuODArNd-57">
          <mxGeometry relative="1" as="geometry" />
        </mxCell>
        <mxCell id="MALh_kVeiFTgHuODArNd-54" value="print(result)" style="shape=document;whiteSpace=wrap;html=1;boundedLbl=1;" vertex="1" parent="1">
          <mxGeometry x="700" y="670" width="120" height="80" as="geometry" />
        </mxCell>
        <mxCell id="MALh_kVeiFTgHuODArNd-57" value="End" style="ellipse;whiteSpace=wrap;html=1;" vertex="1" parent="1">
          <mxGeometry x="690" y="790" width="120" height="80" as="geometry" />
        </mxCell>
      </root>
    </mxGraphModel>
  </diagram>
</mxfile>
